<?xml version="1.0" encoding="UTF-8"?>
<svg xmlns="http://www.w3.org/2000/svg" xmlns:xlink="http://www.w3.org/1999/xlink" viewBox="0 0 648.81 648.81">
  <defs>
    <style>
      .cls-1 {
        fill: url(#_名称未設定グラデーション_127);
        stroke: url(#_名称未設定グラデーション_129);
      }

      .cls-1, .cls-2, .cls-3, .cls-4, .cls-5, .cls-6, .cls-7, .cls-8 {
        stroke-miterlimit: 10;
      }

      .cls-2 {
        fill: url(#_名称未設定グラデーション_132);
        stroke: url(#_名称未設定グラデーション_157);
      }

      .cls-3 {
        fill: url(#_名称未設定グラデーション_88);
        stroke: url(#_名称未設定グラデーション_89);
      }

      .cls-4 {
        fill: url(#_名称未設定グラデーション_87);
        stroke: url(#_名称未設定グラデーション_86);
      }

      .cls-5 {
        fill: url(#_名称未設定グラデーション_87-2);
        stroke: url(#_名称未設定グラデーション_86-2);
      }

      .cls-6 {
        fill: url(#_名称未設定グラデーション_88-2);
        stroke: url(#_名称未設定グラデーション_89-2);
      }

      .cls-7 {
        fill: url(#_名称未設定グラデーション_115);
        stroke: url(#_名称未設定グラデーション_115-2);
      }

      .cls-8 {
        fill: url(#_名称未設定グラデーション_112);
        stroke: url(#_名称未設定グラデーション_112-2);
      }
    </style>
    <linearGradient id="_名称未設定グラデーション_112" data-name="名称未設定グラデーション 112" x1="330.88" y1="305.35" x2="238.73" y2="464.96" gradientUnits="userSpaceOnUse">
      <stop offset=".1" stop-color="#005137"/>
      <stop offset=".9" stop-color="#27993a"/>
    </linearGradient>
    <linearGradient id="_名称未設定グラデーション_112-2" data-name="名称未設定グラデーション 112" x1="330.99" y1="304.78" x2="238.31" y2="465.3" xlink:href="#_名称未設定グラデーション_112"/>
    <linearGradient id="_名称未設定グラデーション_115" data-name="名称未設定グラデーション 115" x1="317.1" y1="290.89" x2="409.25" y2="131.28" gradientUnits="userSpaceOnUse">
      <stop offset=".1" stop-color="#005137"/>
      <stop offset=".9" stop-color="#27993a"/>
    </linearGradient>
    <linearGradient id="_名称未設定グラデーション_115-2" data-name="名称未設定グラデーション 115" x1="317" y1="291.47" x2="409.67" y2="130.95" xlink:href="#_名称未設定グラデーション_115"/>
    <linearGradient id="_名称未設定グラデーション_127" data-name="名称未設定グラデーション 127" x1="375.67" y1="334.72" x2="263.92" y2="528.29" gradientUnits="userSpaceOnUse">
      <stop offset=".2" stop-color="#005137"/>
      <stop offset=".8" stop-color="#001f28"/>
    </linearGradient>
    <linearGradient id="_名称未設定グラデーション_129" data-name="名称未設定グラデーション 129" x1="376.02" y1="334.29" x2="263.74" y2="528.76" gradientUnits="userSpaceOnUse">
      <stop offset=".2" stop-color="#005137"/>
      <stop offset=".8" stop-color="#001f28"/>
    </linearGradient>
    <linearGradient id="_名称未設定グラデーション_132" data-name="名称未設定グラデーション 132" x1="384.07" y1="67.96" x2="272.31" y2="261.53" gradientUnits="userSpaceOnUse">
      <stop offset=".2" stop-color="#002029"/>
      <stop offset=".8" stop-color="#005137"/>
    </linearGradient>
    <linearGradient id="_名称未設定グラデーション_157" data-name="名称未設定グラデーション 157" x1="384.24" y1="67.48" x2="271.96" y2="261.96" gradientUnits="userSpaceOnUse">
      <stop offset=".2" stop-color="#002029"/>
      <stop offset=".8" stop-color="#005137"/>
    </linearGradient>
    <linearGradient id="_名称未設定グラデーション_87" data-name="名称未設定グラデーション 87" x1="408.94" y1="410.48" x2="498.17" y2="358.96" gradientUnits="userSpaceOnUse">
      <stop offset=".3" stop-color="#005036"/>
      <stop offset=".9" stop-color="#38a438"/>
    </linearGradient>
    <linearGradient id="_名称未設定グラデーション_86" data-name="名称未設定グラデーション 86" x1="408.17" y1="410.93" x2="498.67" y2="358.68" gradientUnits="userSpaceOnUse">
      <stop offset=".3" stop-color="#005036"/>
      <stop offset=".9" stop-color="#38a438"/>
    </linearGradient>
    <linearGradient id="_名称未設定グラデーション_88" data-name="名称未設定グラデーション 88" x1="455.94" y1="380.23" x2="550.09" y2="325.87" gradientUnits="userSpaceOnUse">
      <stop offset=".2" stop-color="#005327"/>
      <stop offset=".8" stop-color="#20a139"/>
    </linearGradient>
    <linearGradient id="_名称未設定グラデーション_89" data-name="名称未設定グラデーション 89" x1="455.17" y1="380.69" x2="550.59" y2="325.6" gradientUnits="userSpaceOnUse">
      <stop offset=".2" stop-color="#005327"/>
      <stop offset=".8" stop-color="#20a139"/>
    </linearGradient>
    <linearGradient id="_名称未設定グラデーション_87-2" data-name="名称未設定グラデーション 87" x1="536.78" y1="453.42" x2="626.01" y2="401.91" gradientTransform="translate(776.65 639.73) rotate(-180)" xlink:href="#_名称未設定グラデーション_87"/>
    <linearGradient id="_名称未設定グラデーション_86-2" data-name="名称未設定グラデーション 86" x1="536.01" y1="453.88" x2="626.51" y2="401.63" gradientTransform="translate(776.65 639.73) rotate(-180)" xlink:href="#_名称未設定グラデーション_86"/>
    <linearGradient id="_名称未設定グラデーション_88-2" data-name="名称未設定グラデーション 88" x1="583.78" y1="423.18" x2="677.93" y2="368.82" gradientTransform="translate(776.65 639.73) rotate(-180)" xlink:href="#_名称未設定グラデーション_88"/>
    <linearGradient id="_名称未設定グラデーション_89-2" data-name="名称未設定グラデーション 89" x1="583.01" y1="423.64" x2="678.43" y2="368.55" gradientTransform="translate(776.65 639.73) rotate(-180)" xlink:href="#_名称未設定グラデーション_89"/>
  </defs>
  <g id="_レイヤー_14" data-name="レイヤー 14">
    <g id="_レイヤー_12" data-name="レイヤー 12">
      <path class="cls-8" d="M280.86,276.48v121.37c-2.92-.76-23.8-5.82-40.68,7.34-3.21,2.5-12.69,10.13-15.01,23.68-2.35,13.7,4.23,24.12,6.07,26.95,8.89,13.61,23.25,16.95,28.06,18.07,2.69.63,15.84,3.44,30.67-2.6,5.3-2.16,15.84-6.46,22.02-17.73,3.67-6.7,4.32-13.16,4.38-16.95v-136.95l-35.52-23.19Z"/>
    </g>
    <g id="_レイヤー_12のコピー" data-name="レイヤー 12のコピー">
      <path class="cls-7" d="M416.74,140.43c-8.89-13.61-23.25-16.95-28.07-18.07-2.69-.63-15.84-3.44-30.67,2.6-5.3,2.16-15.84,6.46-22.02,17.73-3.67,6.7-4.32,13.16-4.38,16.95v136.95l35.52,23.19v-121.37c2.91.76,23.8,5.82,40.68-7.34,3.21-2.5,12.69-10.13,15.01-23.68,2.35-13.7-4.23-24.12-6.07-26.95Z"/>
    </g>
  </g>
  <g id="_レイヤー_15" data-name="レイヤー 15">
    <g id="_レイヤー_13" data-name="レイヤー 13">
      <path class="cls-1" d="M330.72,308.76v130.42c-.06,2.61-.37,6.26-1.45,10.47-.59,2.31-3.33,12.22-11.92,21.25-9.11,9.58-19.56,12.62-26.52,14.66-5.62,1.64-16.11,4.57-29.54,2.19-15.53-2.76-25.39-10.92-27.42-12.66-4.34-3.71-14.77-12.62-17.27-27.65-1.74-10.46,1.21-18.86,2.44-22.26,4.35-12.04,12.41-18.28,12.19-18.48-.36-.32-21.79,13.88-26.86,37.86-2.78,13.14.41,24.3,1.71,28.69,4.54,15.36,13.69,24.66,18.61,29.53,11.58,11.48,23.23,16.15,39.37,22.41,22.51,8.74,41.06,11.51,54.33,13.4,11.08,1.58,25.71,3.03,43.04,3.04h-.02s5.72-.03,5.72-.03v-209.41l-36.4-23.44Z"/>
    </g>
    <g id="_レイヤー_13のコピー_3" data-name="レイヤー 13のコピー 3">
      <path class="cls-2" d="M441.92,122.99c-4.54-15.36-13.69-24.66-18.61-29.53-11.58-11.48-23.23-16.15-39.37-22.41-22.51-8.74-41.06-11.51-54.33-13.4-11.08-1.58-25.71-3.03-43.04-3.04h.02s-5.72.03-5.72.03v209.41l36.4,23.44v-130.42l-35.14-98.86h0s35.14,98.86,35.14,98.86c.06-2.61.37-6.26,1.45-10.47.59-2.31,3.33-12.22,11.92-21.25,9.11-9.58,19.56-12.62,26.52-14.66,5.62-1.64,16.11-4.57,29.54-2.19,15.53,2.76,25.39,10.92,27.42,12.66,4.34,3.71,14.77,12.62,17.27,27.65,1.74,10.46-1.21,18.86-2.44,22.26-4.35,12.04-12.41,18.28-12.19,18.48.36.32,21.79-13.88,26.86-37.86,2.78-13.14-.41-24.3-1.71-28.69Z"/>
    </g>
  </g>
  <g id="_レイヤー_16" data-name="レイヤー 16">
    <polygon class="cls-4" points="368.75 320.84 458.86 379.84 458.86 496.94 495.89 473.17 495.89 355.01 406.75 296.45 368.75 320.84"/>
    <polygon class="cls-3" points="458.05 263.53 415.95 290.54 505.94 349.68 505.94 466.84 548.16 439.63 548.16 322.52 458.05 263.53"/>
    <polygon class="cls-5" points="280.06 275.94 189.95 216.94 189.95 99.84 152.91 123.61 152.91 241.77 242.05 300.33 280.06 275.94"/>
    <polygon class="cls-6" points="190.76 333.25 232.85 306.24 142.87 247.1 142.87 129.94 100.65 157.15 100.65 274.26 190.76 333.25"/>
  </g>
</svg>